{
  "asset": {
    "version": "2.0",
    "generator": "THREE.GLTFExporter"
  },
  "scenes": [
    {
      "name": "Scene",
      "nodes": [
        7
      ]
    }
  ],
  "scene": 0,
  "nodes": [
    {
      "matrix": [
        1,
        0,
        0,
        0,
        0,
        2.220446049250313e-16,
        1,
        0,
        0,
        -1,
        2.220446049250313e-16,
        0,
        0,
        -32.958984375,
        0,
        1
      ],
      "name": "side",
      "extras": {
        "name": "side"
      },
      "mesh": 1
    },
    {
      "matrix": [
        -1,
        1.2246467991473532e-16,
        -2.465190328815662e-32,
        0,
        0,
        2.220446049250313e-16,
        1,
        0,
        1.2246467991473532e-16,
        1,
        -2.220446049250313e-16,
        0,
        0,
        32.958984375,
        0,
        1
      ],
      "name": "side_1",
      "extras": {
        "name": "side"
      },
      "mesh": 2
    },
    {
      "matrix": [
        2.220446049250313e-16,
        0,
        1,
        0,
        0,
        1,
        0,
        0,
        -1,
        0,
        2.220446049250313e-16,
        0,
        -50,
        0,
        0,
        1
      ],
      "name": "side_2",
      "extras": {
        "name": "side"
      },
      "mesh": 3
    },
    {
      "matrix": [
        2.220446049250313e-16,
        0,
        -1,
        0,
        0,
        1,
        0,
        0,
        1,
        0,
        2.220446049250313e-16,
        0,
        50,
        0,
        0,
        1
      ],
      "name": "side_3",
      "extras": {
        "name": "side"
      },
      "mesh": 4
    },
    {
      "matrix": [
        1,
        0,
        0,
        0,
        0,
        -1,
        1.2246467991473532e-16,
        0,
        0,
        -1.2246467991473532e-16,
        -1,
        0,
        0,
        0,
        -67.8266992183216,
        1
      ],
      "name": "bottom",
      "extras": {
        "name": "bottom"
      },
      "mesh": 5
    },
    {
      "matrix": [
        1,
        0,
        0,
        0,
        0,
        1,
        0,
        0,
        0,
        0,
        0.022115184983007616,
        0,
        0,
        0,
        0,
        1
      ],
      "name": "mesh_0",
      "extras": {
        "layerId": 6
      },
      "mesh": 0,
      "children": [
        0,
        1,
        2,
        3,
        4
      ]
    },
    {
      "matrix": [
        1,
        0,
        0,
        0,
        0,
        2.220446049250313e-16,
        -1,
        0,
        0,
        1,
        2.220446049250313e-16,
        0,
        0,
        0,
        0,
        1
      ],
      "name": "Final_MErged_DEM_TC_Parcel_LiDAR",
      "extras": {
        "name": "Final MErged DEM TC Parcel LiDAR"
      },
      "children": [
        5
      ]
    },
    {
      "name": "tc_gltf.gltf",
      "children": [
        6
      ]
    }
  ],
  "bufferViews": [
    {
      "buffer": 0,
      "byteOffset": 0,
      "byteLength": 483132,
      "target": 34962,
      "byteStride": 12
    },
    {
      "buffer": 0,
      "byteOffset": 483132,
      "byteLength": 483132,
      "target": 34962,
      "byteStride": 12
    },
    {
      "buffer": 0,
      "byteOffset": 966264,
      "byteLength": 322088,
      "target": 34962,
      "byteStride": 8
    },
    {
      "buffer": 0,
      "byteOffset": 1288352,
      "byteLength": 478224,
      "target": 34963
    },
    {
      "buffer": 0,
      "byteOffset": 1766576,
      "byteLength": 5928,
      "target": 34962,
      "byteStride": 12
    },
    {
      "buffer": 0,
      "byteOffset": 1772504,
      "byteLength": 5928,
      "target": 34962,
      "byteStride": 12
    },
    {
      "buffer": 0,
      "byteOffset": 1778432,
      "byteLength": 3952,
      "target": 34962,
      "byteStride": 8
    },
    {
      "buffer": 0,
      "byteOffset": 1782384,
      "byteLength": 2952,
      "target": 34963
    },
    {
      "buffer": 0,
      "byteOffset": 1785336,
      "byteLength": 5928,
      "target": 34962,
      "byteStride": 12
    },
    {
      "buffer": 0,
      "byteOffset": 1791264,
      "byteLength": 5928,
      "target": 34962,
      "byteStride": 12
    },
    {
      "buffer": 0,
      "byteOffset": 1797192,
      "byteLength": 3952,
      "target": 34962,
      "byteStride": 8
    },
    {
      "buffer": 0,
      "byteOffset": 1801144,
      "byteLength": 2952,
      "target": 34963
    },
    {
      "buffer": 0,
      "byteOffset": 1804096,
      "byteLength": 3912,
      "target": 34962,
      "byteStride": 12
    },
    {
      "buffer": 0,
      "byteOffset": 1808008,
      "byteLength": 3912,
      "target": 34962,
      "byteStride": 12
    },
    {
      "buffer": 0,
      "byteOffset": 1811920,
      "byteLength": 2608,
      "target": 34962,
      "byteStride": 8
    },
    {
      "buffer": 0,
      "byteOffset": 1814528,
      "byteLength": 1944,
      "target": 34963
    },
    {
      "buffer": 0,
      "byteOffset": 1816472,
      "byteLength": 3912,
      "target": 34962,
      "byteStride": 12
    },
    {
      "buffer": 0,
      "byteOffset": 1820384,
      "byteLength": 3912,
      "target": 34962,
      "byteStride": 12
    },
    {
      "buffer": 0,
      "byteOffset": 1824296,
      "byteLength": 2608,
      "target": 34962,
      "byteStride": 8
    },
    {
      "buffer": 0,
      "byteOffset": 1826904,
      "byteLength": 1944,
      "target": 34963
    },
    {
      "buffer": 0,
      "byteOffset": 1828848,
      "byteLength": 48,
      "target": 34962,
      "byteStride": 12
    },
    {
      "buffer": 0,
      "byteOffset": 1828896,
      "byteLength": 48,
      "target": 34962,
      "byteStride": 12
    },
    {
      "buffer": 0,
      "byteOffset": 1828944,
      "byteLength": 32,
      "target": 34962,
      "byteStride": 8
    },
    {
      "buffer": 0,
      "byteOffset": 1828976,
      "byteLength": 12,
      "target": 34963
    }
  ],
  "buffers": [
    {
      "byteLength": 1828988,
      "uri": "data:application/octet-stream;base64,"
    }
  ],
  "accessors": [
    {
      "bufferView": 0,
      "componentType": 5126,
      "count": 40261,
      "max": [
        50,
        32.958984375,
        853.40380859375
      ],
      "min": [
        -50,
        -32.958984375,
        481.8255310058594
      ],
      "type": "VEC3"
    },
    {
      "bufferView": 1,
      "componentType": 5126,
      "count": 40261,
      "max": [
        0.999778151512146,
        0.9997485876083374,
        0.9999547004699707
      ],
      "min": [
        -0.9996789693832397,
        -0.9997040033340454,
        0.0090516097843647
      ],
      "type": "VEC3"
    },
    {
      "bufferView": 2,
      "componentType": 5126,
      "count": 40261,
      "max": [
        1,
        1
      ],
      "min": [
        0,
        0
      ],
      "type": "VEC2"
    },
    {
      "bufferView": 3,
      "componentType": 5123,
      "count": 239112,
      "max": [
        40260
      ],
      "min": [
        0
      ],
      "type": "SCALAR"
    },
    {
      "bufferView": 4,
      "componentType": 5126,
      "count": 494,
      "max": [
        50,
        645.7040405273438,
        0
      ],
      "min": [
        -50,
        -67.82669830322266,
        0
      ],
      "type": "VEC3"
    },
    {
      "bufferView": 5,
      "componentType": 5126,
      "count": 494,
      "max": [
        0,
        0,
        1
      ],
      "min": [
        0,
        0,
        1
      ],
      "type": "VEC3"
    },
    {
      "bufferView": 6,
      "componentType": 5126,
      "count": 494,
      "max": [
        1,
        1
      ],
      "min": [
        0,
        0
      ],
      "type": "VEC2"
    },
    {
      "bufferView": 7,
      "componentType": 5123,
      "count": 1476,
      "max": [
        493
      ],
      "min": [
        0
      ],
      "type": "SCALAR"
    },
    {
      "bufferView": 8,
      "componentType": 5126,
      "count": 494,
      "max": [
        50,
        850.3023681640625,
        0
      ],
      "min": [
        -50,
        -67.82669830322266,
        0
      ],
      "type": "VEC3"
    },
    {
      "bufferView": 9,
      "componentType": 5126,
      "count": 494,
      "max": [
        0,
        0,
        1
      ],
      "min": [
        0,
        0,
        1
      ],
      "type": "VEC3"
    },
    {
      "bufferView": 10,
      "componentType": 5126,
      "count": 494,
      "max": [
        1,
        1
      ],
      "min": [
        0,
        0
      ],
      "type": "VEC2"
    },
    {
      "bufferView": 11,
      "componentType": 5123,
      "count": 1476,
      "max": [
        493
      ],
      "min": [
        0
      ],
      "type": "SCALAR"
    },
    {
      "bufferView": 12,
      "componentType": 5126,
      "count": 326,
      "max": [
        845.3993530273438,
        32.958984375,
        0
      ],
      "min": [
        -67.82669830322266,
        -32.958984375,
        0
      ],
      "type": "VEC3"
    },
    {
      "bufferView": 13,
      "componentType": 5126,
      "count": 326,
      "max": [
        0,
        0,
        1
      ],
      "min": [
        0,
        0,
        1
      ],
      "type": "VEC3"
    },
    {
      "bufferView": 14,
      "componentType": 5126,
      "count": 326,
      "max": [
        1,
        1
      ],
      "min": [
        0,
        0
      ],
      "type": "VEC2"
    },
    {
      "bufferView": 15,
      "componentType": 5123,
      "count": 972,
      "max": [
        325
      ],
      "min": [
        0
      ],
      "type": "SCALAR"
    },
    {
      "bufferView": 16,
      "componentType": 5126,
      "count": 326,
      "max": [
        67.82669830322266,
        32.958984375,
        0
      ],
      "min": [
        -645.7040405273438,
        -32.958984375,
        0
      ],
      "type": "VEC3"
    },
    {
      "bufferView": 17,
      "componentType": 5126,
      "count": 326,
      "max": [
        0,
        0,
        1
      ],
      "min": [
        0,
        0,
        1
      ],
      "type": "VEC3"
    },
    {
      "bufferView": 18,
      "componentType": 5126,
      "count": 326,
      "max": [
        1,
        1
      ],
      "min": [
        0,
        0
      ],
      "type": "VEC2"
    },
    {
      "bufferView": 19,
      "componentType": 5123,
      "count": 972,
      "max": [
        325
      ],
      "min": [
        0
      ],
      "type": "SCALAR"
    },
    {
      "bufferView": 20,
      "componentType": 5126,
      "count": 4,
      "max": [
        50,
        32.958984375,
        0
      ],
      "min": [
        -50,
        -32.958984375,
        0
      ],
      "type": "VEC3"
    },
    {
      "bufferView": 21,
      "componentType": 5126,
      "count": 4,
      "max": [
        0,
        0,
        1
      ],
      "min": [
        0,
        0,
        1
      ],
      "type": "VEC3"
    },
    {
      "bufferView": 22,
      "componentType": 5126,
      "count": 4,
      "max": [
        1,
        1
      ],
      "min": [
        0,
        0
      ],
      "type": "VEC2"
    },
    {
      "bufferView": 23,
      "componentType": 5123,
      "count": 6,
      "max": [
        3
      ],
      "min": [
        0
      ],
      "type": "SCALAR"
    }
  ],
  "materials": [
    {
      "pbrMetallicRoughness": {
        "metallicFactor": 0.5,
        "roughnessFactor": 0.5,
        "baseColorTexture": {
          "index": 0,
          "texCoord": 0
        }
      },
      "doubleSided": true
    },
    {
      "pbrMetallicRoughness": {
        "baseColorFactor": [
          0.8,
          0.7333333333333333,
          0.6666666666666666,
          1
        ],
        "metallicFactor": 0.5,
        "roughnessFactor": 0.5
      }
    }
  ],
  "textures": [
    {
      "sampler": 0,
      "source": 0
    }
  ],
  "samplers": [
    {
      "magFilter": 9729,
      "minFilter": 9987,
      "wrapS": 33071,
      "wrapT": 33071
    }
  ],
  "images": [
    {
      "mimeType": "image/png",
      "uri": "data:image/png;base64,"
    }
  ],
  "meshes": [
    {
      "primitives": [
        {
          "mode": 4,
          "attributes": {
            "POSITION": 0,
            "NORMAL": 1,
            "TEXCOORD_0": 2
          },
          "indices": 3,
          "material": 0
        }
      ]
    },
    {
      "primitives": [
        {
          "mode": 4,
          "attributes": {
            "POSITION": 4,
            "NORMAL": 5,
            "TEXCOORD_0": 6
          },
          "indices": 7,
          "material": 1
        }
      ]
    },
    {
      "primitives": [
        {
          "mode": 4,
          "attributes": {
            "POSITION": 8,
            "NORMAL": 9,
            "TEXCOORD_0": 10
          },
          "indices": 11,
          "material": 1
        }
      ]
    },
    {
      "primitives": [
        {
          "mode": 4,
          "attributes": {
            "POSITION": 12,
            "NORMAL": 13,
            "TEXCOORD_0": 14
          },
          "indices": 15,
          "material": 1
        }
      ]
    },
    {
      "primitives": [
        {
          "mode": 4,
          "attributes": {
            "POSITION": 16,
            "NORMAL": 17,
            "TEXCOORD_0": 18
          },
          "indices": 19,
          "material": 1
        }
      ]
    },
    {
      "primitives": [
        {
          "mode": 4,
          "attributes": {
            "POSITION": 20,
            "NORMAL": 21,
            "TEXCOORD_0": 22
          },
          "indices": 23,
          "material": 1
        }
      ]
    }
  ]
}